<svg viewBox="0 0 64 64" xmlns="http://www.w3.org/2000/svg" role="img" aria-label="Direct Staff Inc.">
  <g fill="#C9A24B">
    <circle cx="12" cy="17" r="6.5"/>
    <path d="M12 25.5 C5.5 25.5 1.5 30 1.5 36 L1.5 52 L22.5 52 L22.5 36 C22.5 30 18.5 25.5 12 25.5 Z"/>
  </g>
  <g fill="#c879a8">
    <circle cx="50" cy="17" r="6.5"/>
    <path d="M50 25.5 C43.5 25.5 39.5 30 39.5 36 L39.5 52 L60.5 52 L60.5 36 C60.5 30 56.5 25.5 50 25.5 Z"/>
  </g>
  <g fill="#ffffff">
    <circle cx="26" cy="13" r="7.5"/>
    <path d="M26 22.5 C18.5 22.5 13.5 27.5 13.5 34 L13.5 54 L38.5 54 L38.5 34 C38.5 27.5 33.5 22.5 26 22.5 Z"/>
  </g>
  <g fill="#e0a8cc">
    <circle cx="40" cy="14" r="7.5"/>
    <path d="M40 23.5 C32.5 23.5 27.5 28.5 27.5 35 L27.5 54 L52.5 54 L52.5 35 C52.5 28.5 47.5 23.5 40 23.5 Z"/>
  </g>
</svg>